<?xml version="1.0" encoding="UTF-8"?>
<svg version="1.1" xmlns="http://www.w3.org/2000/svg" width="500" height="500">
<path d="M0 0 C165 0 330 0 500 0 C500 165 500 330 500 500 C335 500 170 500 0 500 C0 335 0 170 0 0 Z " fill="#000000" transform="translate(0,0)"/>
<path d="M0 0 C3.13576152 2.88840272 5.15369248 5.71098562 7.1796875 9.453125 C7.77144775 10.53480957 8.36320801 11.61649414 8.97290039 12.73095703 C9.4372197 13.59022797 9.4372197 13.59022797 9.91091919 14.46685791 C11.56732821 17.53051461 13.24719851 20.58126498 14.92578125 23.6328125 C15.26731735 24.2547348 15.60885345 24.8766571 15.96073914 25.51742554 C19.22607517 31.44670418 22.62754422 37.29249774 26.0625 43.125 C30.80838618 51.19634398 35.4472645 59.31814373 40 67.5 C44.575664 75.7220259 49.23570748 83.8858143 54 92 C59.37196793 101.14913289 64.59076525 110.37403131 69.75 119.64453125 C74.30536407 127.80961462 78.99748623 135.88777179 83.73242188 143.94970703 C88.67406613 152.38635558 93.46525126 160.90272996 98.20703125 169.453125 C101.32222814 175.05899243 104.52539423 180.58136558 107.91601562 186.02587891 C109 188 109 188 109 190 C103.48745891 190.42330493 97.98448592 190.72983002 92.45947266 190.93383789 C90.58605277 191.01887599 88.71374707 191.13458419 86.84423828 191.2824707 C74.53201142 192.23133299 74.53201142 192.23133299 69 190 C64.49229471 186.1138981 62.2570465 180.59123355 59.97344971 175.21731567 C58.58116274 172.04597596 56.86158368 169.17354981 55.0859375 166.19921875 C53.84784914 164.02927832 52.61089012 161.85869319 51.375 159.6875 C50.69152757 158.48886311 50.00793032 157.29029738 49.32421875 156.09179688 C47.91456472 153.62055002 46.50542863 151.149009 45.09667969 148.67724609 C43.05893952 145.10252631 41.01830976 141.52946357 38.9765625 137.95703125 C38.48337524 137.09410461 38.48337524 137.09410461 37.98022461 136.21374512 C36.98686926 134.47579986 35.99344796 132.73789232 35 131 C31.27920393 124.4910099 27.55878597 117.98181662 23.84625244 111.46810913 C16.31818623 98.2602015 8.76697962 85.06943685 1 72 C-1.44420626 75.1069791 -3.4202139 78.34121833 -5.37109375 81.77734375 C-6.02150635 82.91961426 -6.67191895 84.06188477 -7.34204102 85.23876953 C-8.04054869 86.4716676 -8.7390345 87.70457805 -9.4375 88.9375 C-10.16239557 90.21223806 -10.88757753 91.4868133 -11.61303711 92.76123047 C-13.0685057 95.31877051 -14.52267088 97.87704363 -15.97558594 100.43603516 C-18.66374148 105.16996424 -21.36171068 109.89826915 -24.0625 114.625 C-24.53647217 115.45499512 -25.01044434 116.28499023 -25.4987793 117.14013672 C-30.01873076 125.04797077 -34.57563544 132.93437896 -39.1328125 140.82080078 C-42.53624014 146.71502937 -45.92792382 152.61558131 -49.30078125 158.52734375 C-49.83670395 159.46653404 -49.83670395 159.46653404 -50.38345337 160.42469788 C-52.10603704 163.44431939 -53.82703161 166.46483355 -55.54589844 169.48657227 C-66.22564044 188.22564044 -66.22564044 188.22564044 -68 190 C-70.95705321 190.08868299 -73.89065056 190.11520296 -76.84765625 190.09765625 C-78.17729652 190.09553383 -78.17729652 190.09553383 -79.53379822 190.09336853 C-82.37673254 190.08775215 -85.21958931 190.07519691 -88.0625 190.0625 C-89.98502491 190.05748711 -91.90755104 190.05292384 -93.83007812 190.04882812 C-98.55341549 190.03777741 -103.27669458 190.02050183 -108 190 C-106.59212373 186.23925218 -104.87068945 182.84901808 -102.8671875 179.37109375 C-102.23417725 178.26813965 -101.60116699 177.16518555 -100.94897461 176.02880859 C-100.25768746 174.83168395 -99.56636151 173.6345817 -98.875 172.4375 C-98.1553417 171.18590429 -97.43602802 169.93411037 -96.71704102 168.68212891 C-95.22264909 166.08047011 -93.7267756 163.47967136 -92.22998047 160.87939453 C-90.11561111 157.20395836 -88.01089372 153.5230851 -85.91015625 149.83984375 C-85.58088135 149.26256027 -85.25160645 148.68527679 -84.91235352 148.09049988 C-84.58436768 147.51544205 -84.25638184 146.94038422 -83.91845703 146.34790039 C-77.52594204 135.1409093 -71.09635114 123.95573419 -64.64208984 112.78417969 C-58.06211643 101.388541 -51.53808628 89.96110643 -45.01611328 78.53222656 C-43.01064186 75.01819321 -41.00361799 71.50504843 -38.99609375 67.9921875 C-38.66611389 67.4147731 -38.33613403 66.8373587 -37.99615479 66.2424469 C-36.66591507 63.91481169 -35.33561191 61.58721273 -34.00531006 59.25961304 C-30.62612009 53.34701612 -27.24736799 47.4341726 -23.87191772 41.5194397 C-15.95894237 27.65381218 -8.02303592 13.80234146 0 0 Z " fill="#FCFCFC" transform="translate(243,166)"/>
<path d="M0 0 C7.73109159 6.41584364 12.94404439 14.80871585 14.0078125 24.87109375 C14.24890903 32.85138897 13.49302921 39.2369377 9.625 46.25 C9.20089844 47.04148438 8.77679688 47.83296875 8.33984375 48.6484375 C3.68454303 56.45481921 -3.66497822 61.61345287 -12.375 64.25 C-15.77933611 64.73689303 -19.12654054 64.82115793 -22.5625 64.8125 C-23.48998047 64.8115332 -24.41746094 64.81056641 -25.37304688 64.80957031 C-35.56486571 64.54961127 -42.70232687 60.99188983 -50.375 54.25 C-52.70375338 51.09491477 -54.53666645 47.71008182 -56.375 44.25 C-56.72046875 43.62222656 -57.0659375 42.99445313 -57.421875 42.34765625 C-60.87017062 34.914302 -60.50798507 25.70850608 -58.53125 17.9296875 C-54.86365642 8.24030175 -48.86797195 0.78044384 -39.5078125 -3.8203125 C-26.66010335 -9.42059598 -11.56374482 -8.01577766 0 0 Z " fill="#F9F9F9" transform="translate(375.375,143.75)"/>
<path d="M0 0 C5.17001836 3.10787493 9.09805835 7.43954923 11.37890625 13.0546875 C12.2085427 20.8879991 12.46624339 28.65832793 7.37890625 35.0546875 C3.17299189 39.49980078 -1.02255415 42.59209497 -7.234375 43.390625 C-14.57116975 43.49680148 -19.96292776 42.56620095 -25.375 37.37109375 C-30.95126103 31.12299404 -32.03255115 26.71407419 -31.86328125 18.31640625 C-31.39253814 11.97655955 -29.96303662 7.95657093 -25.18359375 3.6796875 C-18.11915215 -1.97818743 -8.57159345 -3.09139436 0 0 Z " fill="#020202" transform="translate(362.62109375,151.9453125)"/>
</svg>
